<?xml version="1.0" encoding="utf-8"?>
<!-- Generator: Adobe Illustrator 28.1.0, SVG Export Plug-In . SVG Version: 6.00 Build 0)  -->
<svg version="1.1" id="LML" xmlns="http://www.w3.org/2000/svg" xmlns:xlink="http://www.w3.org/1999/xlink" x="0px" y="0px"
	 viewBox="0 0 803 803" style="enable-background:new 0 0 803 803;" xml:space="preserve">
<style type="text/css">
	.st0{fill:#240C31;}
	.st1{fill:#EB008B;}
</style>
<circle class="st0" cx="401.5" cy="401.5" r="401.5"/>
<g>
	<path class="st1" d="M624.2,171l-11.9-11.1c-27.7-26.3-62.2-59-66.9-81.2c-0.1-0.6-0.2-1.5-0.4-2.6l-0.1-0.8
		c-0.8-6-1.3-10.2-3-13.3c-5.8-11.1-44.5-31.4-70.9-31.4c-2.6,0-5,0.2-7.3,0.6C445.8,34,445,77.7,444.9,82.7
		c-0.1,10.1-0.4,101.1-0.5,135.5c-14.6-3.1-29.9-4.7-45.5-4.7c-121.3,0-220.1,98.6-220.1,220c0,65.1,28.6,126.4,78.2,168.1
		c95.3,88.9,114.7,130,118.7,162.1l0.3,2.5c1.3,11.6,11.2,20.4,23,20.4c11.7,0,21.5-8.8,23-20.4l0.3-2.4
		c4-31.9,23.3-73.1,118.2-161.7c49.9-42,78.5-103.4,78.5-168.5c0-17.2-2.1-33.9-5.8-50l0.1,0.1c1-0.8,28.6-14.6,50.2-50.9
		C694.9,279.5,681.2,223.6,624.2,171z"/>
	<path class="st0" d="M596.9,191.3C566.8,164.1,517,124,513.2,85.4c-0.6-5.9-18-17.6-29.4-15.9c-3.3,0.5-3.9,23.7-3.9,28.1
		c-0.1,17.7-0.1,150.1-0.2,245.5c-30.1-17.5-69.6-21.7-107.9-8.3C307.2,357.5,271,421.9,291,478.9c19.9,56.9,88.5,84.8,153.1,62.1
		c52.2-18.2,85.8-63.8,86.3-110.6l0,0l1.1-149.2c86.2,69.3,30.6,134,18.7,143.8c48.4-10.7,76.2-54,87.1-83.8
		C665.5,264.3,619,211.2,596.9,191.3z"/>
</g>
</svg>
