<?xml version="1.0" encoding="utf-8"?>
<svg viewBox="0 0 803 803" xmlns="http://www.w3.org/2000/svg">
  <g transform="matrix(0.0966619998216629, 0, 0, -0.0966619998216629, 26.23658561706543, 779.6555786132812)" fill="#000000" stroke="none">
    <path d="M 3438.177 7801.177 C 2429.177 7758.177 1628.177 7574.177 936.177 7227.177 C 265.177 6891.177 -11.823 6510.177 -11.823 5926.177 C -11.823 4960.177 907.177 2963.177 2061.177 1423.177 C 2739.177 520.177 3257.177 82.177 3743.177 3.177 C 3856.177 -15.823 3910.177 -15.823 4023.177 3.177 C 4437.177 70.177 4860.177 387.177 5398.177 1032.177 C 6317.177 2137.177 7243.177 3802.177 7609.177 5007.177 C 7721.177 5375.177 7767.177 5614.177 7775.177 5863.177 C 7796.177 6498.177 7524.177 6883.177 6804.177 7238.177 C 6114.177 7577.177 5372.177 7750.177 4393.177 7798.177 C 4208.177 7807.177 3616.177 7809.177 3438.177 7801.177 Z" style="fill: rgb(255, 255, 255); stroke: rgb(0, 0, 0); stroke-width: 420px; stroke:none"/>
    <path d="M1590 6070 l0 -720 525 0 525 0 0 205 0 205 -255 0 -255 0 0 515 0 515 -270 0 -270 0 0 -720z"/>
    <path d="M2770 6070 l0 -720 270 0 270 0 0 720 0 720 -270 0 -270 0 0 -720z"/>
    <path d="M3445 6763 c3 -16 99 -338 213 -718 l207 -690 341 -3 340 -2 207 712 c114 392 207 716 207 721 0 4 -114 7 -254 7 l-254 0 -16 -67 c-8 -38 -54 -248 -101 -468 -48 -220 -89 -411 -92 -425 -5 -19 -11 -4 -26 60 -10 47 -63 267 -116 490 l-97 405 -283 3 -283 2 7 -27z"/>
    <path d="M5090 6070 l0 -720 600 0 599 0 -53 153 c-30 83 -59 164 -65 180 l-11 27 -300 0 -300 0 0 100 0 100 280 0 280 0 0 170 0 170 -280 0 -280 0 0 85 0 85 301 2 302 3 63 180 c35 99 64 181 64 183 0 1 -270 2 -600 2 l-600 0 0 -720z"/>
    <path d="M4253 5171 c-69 -23 -132 -77 -168 -142 -29 -52 -30 -59 -30 -179 0 -143 12 -178 84 -243 52 -47 92 -57 238 -57 119 0 170 -9 185 -33 14 -22 8 -67 -12 -87 -19 -19 -33 -20 -255 -20 l-235 0 0 -141 0 -140 323 3 c307 3 324 4 362 24 90 48 128 112 147 244 14 98 2 180 -37 245 -19 33 -39 50 -82 72 -54 26 -68 28 -203 32 -80 2 -153 7 -162 12 -21 11 -25 78 -8 110 10 18 23 19 203 19 l192 0 52 150 52 150 -297 0 c-259 -1 -304 -3 -349 -19z"/>
    <path d="M1560 4655 l0 -525 175 0 175 0 1 273 0 272 69 -270 c38 -148 70 -271 70 -273 0 -1 66 -1 148 0 l147 3 65 260 c36 143 68 266 70 273 3 6 3 -112 2 -263 l-4 -275 186 0 186 0 0 525 0 525 -248 0 -247 0 -58 -232 c-32 -128 -66 -273 -76 -323 l-18 -90 -7 45 c-8 44 -107 488 -127 563 l-10 37 -249 0 -250 0 0 -525z"/>
    <path d="M2950 4824 c0 -411 6 -455 71 -553 43 -64 101 -108 184 -137 73 -26 335 -32 429 -10 134 32 232 111 278 224 22 55 23 67 26 445 l3 387 -195 0 -194 0 -4 -352 c-3 -310 -5 -357 -20 -384 -27 -49 -99 -60 -143 -21 -38 32 -45 102 -45 455 l0 302 -195 0 -195 0 0 -356z"/>
    <path d="M5000 4655 l0 -525 195 0 195 0 0 525 0 525 -195 0 -195 0 0 -525z"/>
    <path d="M5815 5166 c-121 -30 -212 -101 -265 -207 -42 -82 -60 -172 -60 -299 0 -281 103 -447 314 -507 35 -10 125 -16 284 -20 l232 -6 0 151 0 151 -162 3 c-187 3 -212 11 -242 73 -43 88 -30 289 22 337 39 36 54 40 191 47 l123 6 44 125 c24 69 47 133 50 142 5 17 -10 18 -238 17 -157 0 -261 -5 -293 -13z"/>
    <path d="M1580 3665 l0 -335 245 0 245 0 0 95 0 95 -120 0 -120 0 0 240 0 240 -125 0 -125 0 0 -335z"/>
    <path d="M2324 3982 c-82 -29 -127 -72 -166 -159 -30 -66 -32 -242 -4 -322 25 -73 94 -142 167 -167 75 -26 233 -26 308 0 137 48 211 212 181 401 -18 116 -65 186 -155 233 -44 23 -64 27 -165 29 -91 3 -125 0 -166 -15z m195 -171 c27 -27 41 -84 40 -161 0 -80 -16 -127 -51 -153 -67 -49 -117 19 -118 160 0 84 10 125 37 155 21 24 68 23 92 -1z"/>
    <path d="M3695 3988 c-2 -7 -48 -150 -101 -318 -53 -168 -99 -311 -101 -317 -4 -10 22 -13 110 -13 l114 0 13 45 13 45 92 0 93 0 14 -42 15 -43 111 -3 c62 -1 112 1 112 5 0 4 -47 152 -103 328 l-103 320 -137 3 c-105 2 -138 0 -142 -10z m165 -304 c27 -94 27 -94 -25 -94 -25 0 -45 3 -45 6 0 15 44 164 47 160 2 -2 12 -34 23 -72z"/>
    <path d="M4253 3988 c3 -7 18 -50 33 -95 l28 -83 68 0 68 0 0 -240 0 -240 125 0 125 0 0 240 0 240 69 0 69 0 28 83 c15 45 29 88 32 95 3 9 -65 12 -323 12 -257 0 -326 -3 -322 -12z"/>
    <path d="M5180 3991 c-83 -26 -142 -75 -181 -151 -19 -37 -24 -65 -27 -156 -7 -188 34 -276 156 -336 64 -32 72 -33 182 -33 132 1 187 18 252 82 65 63 83 119 83 258 0 116 -1 123 -33 187 -57 116 -142 159 -311 157 -53 0 -107 -4 -121 -8z m182 -191 c39 -53 42 -227 4 -285 -37 -56 -110 -33 -133 41 -25 83 -10 212 29 254 27 28 75 24 100 -10z"/>
    <path d="M5720 3666 l0 -336 105 0 105 0 0 115 0 115 59 0 58 0 38 -107 c21 -60 41 -112 45 -116 4 -4 59 -6 122 -5 l116 3 -57 124 -57 125 38 34 c42 38 58 81 58 157 0 107 -45 180 -125 205 -24 7 -133 14 -272 17 l-233 5 0 -336z m384 153 c32 -15 42 -54 21 -85 -14 -22 -22 -24 -105 -24 l-90 0 0 60 0 60 75 0 c41 0 85 -5 99 -11z"/>
    <path d="M3058 3975 c-95 -35 -151 -114 -168 -237 -27 -192 45 -348 179 -389 20 -6 105 -13 189 -16 l152 -6 0 96 0 95 -110 4 c-98 3 -112 5 -132 26 -21 20 -23 32 -23 117 0 127 9 137 133 143 l88 4 32 89 31 89 -167 -1 c-115 0 -179 -5 -204 -14z"/>
    <path d="M3818 2920 c-298 -35 -547 -244 -638 -535 -28 -90 -38 -259 -20 -358 30 -173 92 -278 280 -473 245 -253 367 -466 402 -701 6 -43 16 -84 21 -90 12 -17 82 -17 95 0 5 6 13 38 17 70 17 148 89 321 197 478 35 53 128 161 213 249 131 136 158 169 198 247 68 132 91 236 84 388 -4 92 -11 139 -31 200 -112 348 -454 568 -818 525z m256 -348 c114 -53 190 -144 222 -266 36 -134 -10 -292 -114 -387 -235 -217 -605 -88 -664 231 -36 192 102 400 299 450 71 18 186 5 257 -28z"/>
  </g>
</svg>
