<svg xmlns="http://www.w3.org/2000/svg" width="700" height="350" viewBox="0 0 700 350"><rect width="100%" height="100%" fill="rgb(16 185 129)"/>
<rect x="20" rx="0" y="10" width="660" height="330" stroke="rgb(244 63 94)" fill="#dddddd" stroke-dasharray="4 4 1 4 4 4 4 4 1 4 4 4 4 4" stroke-width="20" stroke-opacity="0.4"/>
<circle cx="350" r="150" cy="175" stroke="rgb(244 63 94)" fill="none" stroke-width="5"/>
<circle cx="125" r="100" cy="175" stroke="rgb(16 185 129)" fill="none" stroke-width="5"/>
<circle cx="575" r="100" cy="175" stroke="rgb(16 185 129)" fill="none" stroke-width="5"/>
<path fill="rgb(0,0,0)" d="M141.94 141.38h46.45v4.98q0 2.23-.47 3.6-.46 1.37-.93 2.3l-25.48 52.45q-.79 1.63-2.23 2.77-1.44 1.14-3.86 1.14h-8.32l25.99-51.38q.88-1.58 1.74-2.91.86-1.32 1.93-2.53h-32.17q-1.07 0-1.86-.79t-.79-1.86v-7.77ZM243.17 175q0 8.79-1.89 15.28-1.88 6.48-5.21 10.71-3.32 4.24-7.85 6.3-4.54 2.07-9.79 2.07-5.26 0-9.74-2.07-4.49-2.06-7.79-6.3-3.3-4.23-5.16-10.71-1.86-6.49-1.86-15.28 0-8.83 1.86-15.3 1.86-6.46 5.16-10.69 3.3-4.23 7.79-6.3 4.48-2.07 9.74-2.07 5.25 0 9.79 2.07 4.53 2.07 7.85 6.3 3.33 4.23 5.21 10.69 1.89 6.47 1.89 15.3Zm-11.86 0q0-7.3-1.07-12.09t-2.86-7.63q-1.79-2.83-4.12-3.97-2.32-1.14-4.83-1.14-2.47 0-4.77 1.14-2.3 1.14-4.07 3.97-1.76 2.84-2.81 7.63T205.73 175q0 7.3 1.05 12.09t2.81 7.63q1.77 2.83 4.07 3.97 2.3 1.14 4.77 1.14 2.51 0 4.83-1.14 2.33-1.14 4.12-3.97 1.79-2.84 2.86-7.63 1.07-4.79 1.07-12.09Zm65.8 0q0 8.79-1.89 15.28-1.88 6.48-5.21 10.71-3.32 4.24-7.85 6.3-4.54 2.07-9.79 2.07-5.26 0-9.74-2.07-4.49-2.06-7.79-6.3-3.3-4.23-5.16-10.71-1.86-6.49-1.86-15.28 0-8.83 1.86-15.3 1.86-6.46 5.16-10.69 3.3-4.23 7.79-6.3 4.48-2.07 9.74-2.07 5.25 0 9.79 2.07 4.53 2.07 7.85 6.3 3.33 4.23 5.21 10.69 1.89 6.47 1.89 15.3Zm-11.86 0q0-7.3-1.07-12.09t-2.86-7.63q-1.79-2.83-4.12-3.97-2.32-1.14-4.83-1.14-2.47 0-4.77 1.14-2.3 1.14-4.07 3.97-1.76 2.84-2.81 7.63T259.67 175q0 7.3 1.05 12.09t2.81 7.63q1.77 2.83 4.07 3.97 2.3 1.14 4.77 1.14 2.51 0 4.83-1.14 2.33-1.14 4.12-3.97 1.79-2.84 2.86-7.63 1.07-4.79 1.07-12.09Zm85.7 18.23-6.09 6-15.77-15.77-15.9 15.86-6.09-6 15.9-15.95-15.16-15.16 6.05-6.04 15.16 15.16 15.06-15.07 6.14 6.05-15.11 15.11 15.81 15.81Zm38.69-32.04-6.05-1.07q.7-4.84 2.7-8.49 2-3.65 5-6.09t6.88-3.67q3.88-1.23 8.35-1.23 4.65 0 8.39 1.32 3.74 1.33 6.39 3.68 2.65 2.34 4.07 5.51 1.42 3.16 1.42 6.83 0 3.21-.72 5.65-.72 2.44-2.07 4.26-1.35 1.81-3.35 3.07-2 1.25-4.51 2.09 6.05 1.9 9.02 5.81 2.98 3.91 2.98 9.81 0 5.02-1.86 8.88-1.86 3.86-5.02 6.49-3.17 2.63-7.33 3.98-4.16 1.34-8.81 1.34-5.07 0-8.83-1.16-3.77-1.16-6.56-3.44-2.79-2.28-4.74-5.58-1.96-3.3-3.35-7.63l5.07-2.09q2-.84 3.74-.44 1.74.4 2.53 1.88.84 1.63 1.84 3.21t2.4 2.82q1.39 1.23 3.27 1.99 1.89.77 4.49.77 2.93 0 5.12-.95 2.18-.95 3.65-2.49 1.46-1.53 2.18-3.42.72-1.88.72-3.79 0-2.41-.51-4.39-.51-1.98-2.14-3.37-1.63-1.4-4.67-2.19-3.05-.79-8.16-.79v-8.18q4.23-.05 7.02-.79 2.79-.75 4.44-2.07 1.65-1.33 2.3-3.19.65-1.86.65-4.09 0-4.74-2.65-7.21-2.65-2.46-7.07-2.46-2.04 0-3.76.58-1.72.58-3.09 1.63-1.38 1.04-2.31 2.44-.93 1.39-1.39 3.07-.79 2.14-2.07 2.83-1.28.7-3.6.33Zm64.12-9.39-2.37 13.99q2.23-.46 4.28-.67 2.04-.21 3.95-.21 5.3 0 9.35 1.58 4.04 1.58 6.78 4.37 2.75 2.79 4.14 6.54 1.4 3.74 1.4 8.06 0 5.35-1.89 9.77-1.88 4.42-5.23 7.55-3.34 3.14-7.93 4.86-4.58 1.72-9.97 1.72-3.16 0-6-.65-2.83-.65-5.32-1.74-2.49-1.09-4.61-2.51-2.11-1.42-3.79-3l3.54-4.88q1.11-1.58 2.93-1.58 1.16 0 2.37.74 1.21.74 2.77 1.63 1.55.88 3.67 1.62 2.12.75 5.09.75 3.16 0 5.58-1.02 2.42-1.03 4.02-2.86 1.61-1.84 2.42-4.38.82-2.53.82-5.51 0-5.48-3.19-8.57-3.18-3.1-9.42-3.1-4.79 0-9.81 1.77l-7.16-2.05 5.58-32.64h33.2v4.88q0 2.47-1.53 4-1.54 1.54-5.21 1.54h-18.46Zm84.3 23.2q0 8.79-1.88 15.28-1.88 6.48-5.21 10.71-3.32 4.24-7.86 6.3-4.53 2.07-9.78 2.07-5.26 0-9.75-2.07-4.48-2.06-7.78-6.3-3.31-4.23-5.17-10.71-1.86-6.49-1.86-15.28 0-8.83 1.86-15.3 1.86-6.46 5.17-10.69 3.3-4.23 7.78-6.3 4.49-2.07 9.75-2.07 5.25 0 9.78 2.07 4.54 2.07 7.86 6.3 3.33 4.23 5.21 10.69 1.88 6.47 1.88 15.3Zm-11.85 0q0-7.3-1.07-12.09t-2.86-7.63q-1.79-2.83-4.12-3.97-2.32-1.14-4.83-1.14-2.47 0-4.77 1.14-2.3 1.14-4.07 3.97-1.77 2.84-2.81 7.63-1.05 4.79-1.05 12.09t1.05 12.09q1.04 4.79 2.81 7.63 1.77 2.83 4.07 3.97 2.3 1.14 4.77 1.14 2.51 0 4.83-1.14 2.33-1.14 4.12-3.97 1.79-2.84 2.86-7.63 1.07-4.79 1.07-12.09Z"/></svg>
