<?xml version="1.0" encoding="UTF-8"?>
<svg width="32" height="40" viewBox="0 0 32 40" xmlns="http://www.w3.org/2000/svg">
  
    <defs>
      <filter id="shadow" x="-20%" y="-20%" width="140%" height="140%">
        <feDropShadow dx="2" dy="2" stdDeviation="2" flood-color="#44A6FF" flood-opacity="0.3"/>
        <feColorMatrix type="saturate" values="1.5"/>
      </filter>
    </defs>
  
    <defs>
      <linearGradient id="pinGrad" x1="0%" y1="0%" x2="100%" y2="100%">
        <stop offset="0%" style="stop-color:#0088FF;stop-opacity:1" />
        <stop offset="100%" style="stop-color:#44A6FF;stop-opacity:0.9" />
      </linearGradient>
    </defs>

  <!-- Pin shape -->
  <path d="M16 2C9.4 2 4 7.4 4 14c0 8 12 24 12 24s12-16 12-24c0-6.6-5.4-12-12-12z" 
        fill="url(#pinGrad)" 
        stroke="#44A6FF" 
        stroke-width="2" 
        filter="url(#shadow)"/>
  
  <!-- Main Icon (speaker/sound focused) -->
  <g transform="translate(8, 6) scale(0.6)">
    <path d="M6 2h12v20H6V2zM4 6v12h2V6H4zM20 6v12h2V6h-2zM9 8h6v2H9V8zM9 12h6v2H9v-2z" 
          stroke="white" 
          stroke-width="2.5" 
          fill="none" 
          opacity="0.9"/>
  </g>
  
  <!-- Secondary Icon (offset) -->
  <g transform="translate(12, 10) scale(0.4)">
    <path d="M2 12h4l3-8v16l3-8h4M14 8l3-3M14 16l3 3M17 12h4" 
          stroke="white" 
          stroke-width="3" 
          fill="#44A6FF" 
          opacity="0.8"/>
  </g>
</svg>