<?xml version="1.0" encoding="UTF-8"?>
<svg width="32" height="32" viewBox="0 0 32 32" xmlns="http://www.w3.org/2000/svg">
  
    <defs>
      <filter id="shadow" x="-20%" y="-20%" width="140%" height="140%">
        <feDropShadow dx="2" dy="2" stdDeviation="2" flood-color="#44A6FF" flood-opacity="0.3"/>
        <feColorMatrix type="saturate" values="1.5"/>
      </filter>
    </defs>
  
    <defs>
      <linearGradient id="iconGrad" x1="0%" y1="0%" x2="100%" y2="100%">
        <stop offset="0%" style="stop-color:#0088FF;stop-opacity:1" />
        <stop offset="100%" style="stop-color:#44A6FF;stop-opacity:0.9" />
      </linearGradient>
    </defs>

  <!-- Background circle/shape -->
  <circle cx="16" cy="16" r="15" 
          fill="url(#iconGrad)" 
          stroke="#44A6FF" 
          stroke-width="2" 
          filter="url(#shadow)"/>
  
  <!-- Main Icon -->
  <g transform="translate(4, 4) scale(1)">
    <path d="M12 2a10 10 0 1 0 0 20 10 10 0 0 0 0-20zM12 6a6 6 0 1 1 0 12 6 6 0 0 1 0-12zM12 9a3 3 0 1 0 0 6 3 3 0 0 0 0-6z" 
          stroke="white" 
          stroke-width="2" 
          fill="none" 
          opacity="0.95"/>
  </g>
  
  <!-- Small accent icon -->
  <g transform="translate(20, 6) scale(0.3)">
    <path d="M12 2C8.13 2 5 3.79 5 6v12c0 2.21 3.13 4 7 4s7-1.79 7-4V6c0-2.21-3.13-4-7-4zM12 4c2.76 0 5 1.24 5 2.8S14.76 9.6 12 9.6 7 8.36 7 6.8 9.24 4 12 4z" 
          stroke="white" 
          stroke-width="4" 
          fill="#44A6FF" 
          opacity="0.8"/>
  </g>

  <!-- Star overlay for 'saved' -->
  <g transform="translate(18, 2) scale(0.5)">
    <circle cx="12" cy="12" r="11" fill="#44A6FF" opacity="0.9" stroke="white" stroke-width="2"/>
    <path d="M12 2l3.09 6.26L22 9.27l-5 4.87 1.18 6.88L12 17.77l-6.18 3.25L7 14.14 2 9.27l6.91-1.01L12 2z" 
          stroke="white" 
          stroke-width="1.5" 
          fill="white" 
          transform="scale(0.7) translate(3, 3)"/>
  </g>
</svg>