<?xml version="1.0" encoding="utf-8"?>
<!-- Generator: Adobe Illustrator 28.1.0, SVG Export Plug-In . SVG Version: 6.00 Build 0)  -->
<svg version="1.1" id="Layer_2" xmlns="http://www.w3.org/2000/svg" xmlns:xlink="http://www.w3.org/1999/xlink" x="0px" y="0px"
	 viewBox="0 0 803 803" style="enable-background:new 0 0 803 803;" xml:space="preserve">
<style type="text/css">
	.st0{fill:#00A69C;}
	.st1{fill:#240C31;}
	.st2{fill:#EB008B;}
	.st3{fill:#FFFFFF;}
</style>
<g>
	<path class="st0" d="M401.5,777.9l-1,0c-33.9-1.1-69-20.3-107.2-58.6C198.1,624.1,67.3,411.4,31.7,258.2
		c-25-107.7,22.2-151,112-189.5c84.1-36,180.4-43.6,246.4-43.6c3.8,0,7.5,0,11.3,0.1c3.8-0.1,7.5-0.1,11.3-0.1
		c66,0,162.3,7.6,246.5,43.6c89.9,38.5,137,81.8,112,189.5c-35.6,153.2-166.4,366-261.5,461.1c-38.3,38.3-73.4,57.5-107.3,58.6
		L401.5,777.9L401.5,777.9z"/>
	<path class="st1" d="M647.8,95.3c-71-30.4-160-42.3-246.3-41.2c-86.3-1.2-175.3,10.8-246.3,41.2C71.2,131.2,39.3,162.8,60,251.6
		c34.6,148.8,161.7,355.1,253.8,447.2c31.4,31.4,60.7,49.2,87.7,50.1c27-0.9,56.4-18.8,87.7-50.1c92.1-92.1,219.2-298.4,253.8-447.2
		C763.7,162.8,731.8,131.2,647.8,95.3z"/>
	<g>
		<g>
			<path class="st2" d="M277.3,265.8H176.2V127.5h52v99.1h49.1V265.8z"/>
			<path class="st2" d="M290,127.5h51.7v138.2H290V127.5z"/>
			<path class="st2" d="M501.7,127.4c-4.7,16.1-11.4,39.2-20.2,69.2c-9.3,31.8-16,54.8-20.2,69.2H396c-3.9-12.8-10.9-35.9-20.9-69.2
				c-8.8-29.2-15.7-52.3-20.8-69.2h54.5c2.4,10,5.9,24.5,10.5,43.5c5.8,23.9,8.7,36.1,8.8,36.6c0.2,1.2,1.4,6.5,3.4,15.9
				c1.6-8.5,2.9-15.1,3.9-19.7c7.9-36,13.5-61.5,16.8-76.3H501.7z"/>
			<path class="st2" d="M617.4,230.8c0.8,2.2,4.9,13.8,12.3,34.9H514.5V127.4h115.3c-5.7,16.3-9.8,27.9-12.3,35
				c-6.4,0-16.2,0-29.2,0c-12.9,0-22.7,0-29.2-0.1c-0.1,5.5-0.1,11,0,16.5h54.5v33.3h-54.5c-0.1,6.3-0.1,12.5,0,18.8
				C593.6,230.8,613.1,230.8,617.4,230.8z"/>
		</g>
		<g>
			<path class="st2" d="M209.1,382.2c-11,0-22.1,0-33.1,0V281.8h47.5c5.9,25.5,9.5,40.8,10.7,45.9c1.1,4.5,2.1,10.4,3.2,17.7
				c0.9-6.3,1.9-11.5,2.8-15.5c1.2-4.9,3.2-12.9,6-24.1c2.5-10.3,4.5-18.3,6-24h47.4v100.4c-11.7,0-23.5,0-35.3,0v-36.5
				c0-4.3,0.1-11,0.4-19.9c-1.6,7.1-2.8,12.7-3.8,16.7c0.2-0.9-3.1,12.3-10,39.7c-3.1,0-7.8,0-14,0c-6.2,0-10.9,0-14,0
				c-2.4-9.3-5-19.2-7.8-29.9c-2.1-8.2-4.2-17-6.3-26.5c0.3,8.9,0.4,15.4,0.4,19.5V382.2z"/>
			<path class="st2" d="M360.2,385c-10.2,0.3-18.7-0.5-25.7-2.6c-7.1-2.1-12.6-5.6-16.6-10.4c-4.1-4.8-6.8-11.1-8.1-19
				c-0.6-3.4-1-10.8-1-22.2v-48.9h38.1v54.7c0.1,5.6,0.3,9.7,0.8,12.3c0.6,3,1.6,5,3,6.3c1.4,1.2,3.6,1.7,6.5,1.7
				c2.7-0.1,4.7-0.7,6-1.8c1.3-1.2,2.2-3.2,2.7-6c0.5-2.7,0.8-6.7,0.8-12.2v-55h38.1v55.9c0.1,6.3-0.3,11.6-1.2,16.2
				c-1.4,7.7-4.4,13.9-8.7,18.6c-4.6,5-10.8,8.4-18.8,10.4C371.4,384.1,366.2,384.7,360.2,385z"/>
			<path class="st2" d="M451.7,309.9c-1.8,0-3,0.6-3.6,1.7c-0.7,1.2-1,3.3-1,6.1c0.1,2.4,0.7,4,1.7,4.8c0.8,0.6,2.3,0.9,4.5,1
				c1.5,0,4.4,0,8.5,0c3.6,0,6.4,0,8.6,0c5.5,0.2,10,1.2,13.6,2.8c3.5,1.6,6.2,3.9,8.2,6.9c2.2,3.3,3.5,7.5,3.9,12.5
				c0.3,4.2,0.1,8.6-0.6,13.1c-0.7,4.2-1.8,7.8-3.3,11c-1.3,2.6-2.8,4.7-4.6,6.2c-5,4.4-10,6.5-15.1,6.3h-57.1v-26h34.9
				c5.3-0.1,8.1-0.2,8.4-0.3c2.3-0.3,4-1.1,5-2.4c1.1-1.3,1.4-3.2,1.1-5.7c-0.2-1.8-0.9-3.1-2.2-3.9c-1.1-0.7-3.1-1.2-5.9-1.2
				c-2.1,0-4.9,0-8.4,0h-8.4c-4.8-0.1-8.9-1-12.4-2.8c-3.2-1.6-5.9-4-7.9-7c-2.3-3.2-3.8-7.1-4.5-11.8c-0.7-4.1-0.8-8.3-0.4-12.6
				c0.4-4.6,1.6-8.7,3.6-12.1c1.9-3.3,4.5-6.3,7.9-8.9c4.9-3.9,10.3-6,16.2-6.1h53.8c-5.8,16.5-9.1,26.1-10,28.6H451.7z"/>
			<path class="st2" d="M505.8,281.8h37.5v100.4h-37.5V281.8z"/>
			<path class="st2" d="M632.4,382.2c-3.9,0-9.6,0-17.3,0h-17.4c-9.7-0.1-17.9-2.1-24.6-6c-6-3.5-10.7-8.4-14-14.9
				c-3.7-7.1-5.8-15.9-6.1-26.3c-0.3-10.8,1.1-20,4.1-27.7c2.6-6.9,6.6-12.4,11.9-16.5c5.7-4.5,12.9-7.3,21.5-8.4
				c2.1-0.3,7-0.4,14.5-0.5h30.9c-0.7,2.1-2.4,6.8-4.9,14.1c-2.1,5.8-3.7,10.5-5,14.1c-1.6,0-4.6,0-9.1,0c-3.8,0-6.9,0-9.1,0.1
				c-5.2,0.2-8.9,1.3-11.1,3.1c-2.5,2.1-4,5.7-4.6,10.7c-0.6,5.1-0.7,10.3-0.1,15.7c0.6,5.2,2.1,8.9,4.6,11c2.3,2,6.1,3.1,11.5,3.3
				c3.1,0,7.2,0,12.3,0c6.4,0,10.5,0,12.3,0V382.2z"/>
		</g>
		<g>
			<path class="st2" d="M222.1,458H176v-63.1h23.7v45.3h22.4V458z"/>
			<path class="st2" d="M286.6,401.5c3.3,2.9,5.7,6.6,7.2,11.2c1.8,5.1,2.4,11,2.1,17.8c-0.4,6.8-2,12.5-4.9,17.1
				c-2.3,3.7-5.4,6.6-9.3,8.7c-2.7,1.5-5.7,2.5-9,3.1c-2.8,0.5-5.4,0.8-7.9,0.7c-4.4,0-7.8-0.2-10.5-0.7c-5.5-0.9-10.1-2.9-13.7-5.8
				c-3.3-2.6-5.8-6-7.5-10c-1.6-3.6-2.5-7.8-2.8-12.5c-0.4-5.7,0-10.8,1.2-15.5c1.2-4.8,3.1-8.7,5.8-11.9c3-3.6,7-6.2,11.9-7.8
				c2.7-0.9,5.8-1.5,9.1-1.7c0.6-0.1,2.1-0.1,4.5-0.1c5.2,0,9.7,0.6,13.4,1.7C280.3,397.1,283.8,398.9,286.6,401.5z M270.7,436
				c0.6-2.6,0.9-5.9,0.8-10c-0.1-3.8-0.5-6.9-1.2-9.3c-0.7-2.4-1.9-4.2-3.4-5.2c-1.7-1.2-3.3-1.5-4.8-1.1c-1.9,0.4-3.4,1.4-4.5,3
				c-1.2,1.7-2.1,4.3-2.5,7.6c-0.4,3.4-0.5,6.9-0.2,10.7c0.3,3.8,1.1,6.7,2.3,8.7c0.7,1.3,1.8,2.3,3.1,2.9c1.3,0.6,2.7,0.8,4,0.5
				c1.5-0.3,2.7-1,3.8-2.1C269.2,440.4,270.1,438.5,270.7,436z"/>
			<path class="st2" d="M354.5,458c-2.4,0-6.1,0-10.9,0h-10.9c-6.1-0.1-11.3-1.3-15.5-3.8c-3.8-2.2-6.7-5.3-8.8-9.3
				c-2.4-4.5-3.6-10-3.8-16.5c-0.2-6.8,0.7-12.6,2.6-17.4c1.7-4.3,4.2-7.8,7.5-10.4c3.6-2.9,8.1-4.6,13.5-5.3
				c1.3-0.2,4.4-0.3,9.1-0.3h19.4c-0.5,1.3-1.5,4.3-3.1,8.9c-1.3,3.7-2.3,6.6-3.1,8.9c-1,0-2.9,0-5.7,0c-2.4,0-4.3,0-5.7,0
				c-3.3,0.1-5.6,0.8-7,2c-1.6,1.3-2.5,3.6-2.9,6.7c-0.4,3.2-0.4,6.5-0.1,9.9c0.4,3.3,1.3,5.6,2.9,6.9c1.4,1.3,3.8,1.9,7.2,2.1
				c2,0,4.5,0,7.7,0c4,0,6.6,0,7.7,0V458z"/>
			<path class="st2" d="M409.6,457.9c-0.1-0.4-0.6-1.9-1.4-4.4c-0.6-1.8-1-3.2-1.4-4.4h-18.2c-0.3,0.9-0.8,2.4-1.4,4.4
				c-0.6,1.9-1.1,3.4-1.4,4.4h-21.4c4-12.6,10.8-33.7,20.2-63.1h26.1c14,43.7,20.7,64.7,20.2,63.1H409.6z M402.6,433.2
				c-2.2-7.5-3.8-13.1-5-16.9c-1,3.3-2.6,8.9-4.9,16.9H402.6z"/>
			<path class="st2" d="M448.9,458v-45.3H436c-0.2-0.6-2.3-6.5-6.3-17.9c7.5,0,17.9,0,31.1,0c14.8,0,25.1,0,31,0
				c-0.7,2-1.7,5-3.1,8.9c-1.4,4-2.4,7-3.1,9h-13V458H448.9z"/>
			<path class="st2" d="M552.4,401.5c3.3,2.9,5.7,6.6,7.2,11.2c1.8,5.1,2.4,11,2.1,17.8c-0.4,6.8-2,12.5-4.9,17.1
				c-2.3,3.7-5.4,6.6-9.3,8.7c-2.7,1.5-5.7,2.5-9,3.1c-2.8,0.5-5.4,0.8-7.9,0.7c-4.4,0-7.8-0.2-10.5-0.7c-5.5-0.9-10.1-2.9-13.7-5.8
				c-3.3-2.6-5.8-6-7.5-10c-1.5-3.6-2.5-7.8-2.8-12.5c-0.4-5.7,0-10.8,1.2-15.5c1.2-4.8,3.1-8.7,5.8-11.9c3-3.6,7-6.2,11.9-7.8
				c2.7-0.9,5.8-1.5,9.1-1.7c0.6-0.1,2.1-0.1,4.5-0.1c5.2,0,9.7,0.6,13.4,1.7C546.1,397.1,549.6,398.9,552.4,401.5z M536.5,436
				c0.6-2.6,0.9-5.9,0.8-10c-0.1-3.8-0.5-6.9-1.2-9.3c-0.7-2.4-1.9-4.2-3.4-5.2c-1.7-1.2-3.3-1.5-4.8-1.1c-1.9,0.4-3.4,1.4-4.5,3
				c-1.2,1.7-2.1,4.3-2.5,7.6c-0.4,3.4-0.5,6.9-0.2,10.7c0.3,3.8,1.1,6.7,2.3,8.7c0.7,1.3,1.8,2.3,3.1,2.9c1.3,0.6,2.7,0.8,3.9,0.5
				c1.5-0.3,2.7-1,3.8-2.1C535,440.4,535.9,438.5,536.5,436z"/>
			<path class="st2" d="M628,430.4c-1.3,1.3-2.9,2.4-4.9,3.3c1.4,3,3.3,7,5.7,12.1c2.7,5.9,4.6,10,5.6,12.1h-22.9
				c-1.7-4.7-4.2-11.9-7.6-21.4h-11.8c0,2.4,0,6,0,10.7c0,4.7,0,8.3,0,10.7H572v-63.1h35.8c3.5,0,6.5,0.2,9.2,0.7
				c2.7,0.5,5.1,1.3,7,2.3c2,1.1,3.7,2.4,5,4.1c1.3,1.7,2.3,3.8,2.9,6.2c0.6,2.4,0.9,5.3,0.8,8.6c-0.1,3.3-0.6,6.1-1.4,8.5
				C630.5,427.3,629.4,429,628,430.4z M611.5,420.3c0.8-1.2,1.1-2.6,0.9-4.4c-0.1-1.5-0.7-2.7-1.6-3.5c-1.1-1.1-2.5-1.6-4.1-1.5
				h-14.5c0,7,0,10.8,0,11.4c2,0,4.6,0,7.8,0h7.8C609.4,422.1,610.6,421.5,611.5,420.3z"/>
		</g>
	</g>
	<path class="st0" d="M473.7,572.7c0-40.6-33-73.5-73.6-73.5c-40.7,0-73.6,32.9-73.6,73.5c0,22.6,10.2,42.8,26.2,56.2
		c33.3,31,39.9,60.6,41.2,71.2v4.1c0,2.6,2.1,4.7,4.7,4.7h0.3h2.3h0.3c2.6,0,4.7-2.1,4.7-4.7v-4.1c1.3-10.6,7.9-40.1,41.1-71.1
		C463.5,615.5,473.7,595.3,473.7,572.7z"/>
	<path class="st3" d="M438.4,568.1c0-21.1-17.1-38.3-38.3-38.3c-21.2,0-38.3,17.1-38.3,38.3c0,21.1,17.2,38.3,38.3,38.3
		C421.3,606.3,438.4,589.2,438.4,568.1z"/>
</g>
</svg>
