<?xml version="1.0" encoding="utf-8"?>
<!-- Generator: Adobe Illustrator 28.1.0, SVG Export Plug-In . SVG Version: 6.00 Build 0)  -->
<svg version="1.1" id="Layer_1" xmlns="http://www.w3.org/2000/svg" xmlns:xlink="http://www.w3.org/1999/xlink" x="0px" y="0px"
	 viewBox="0 0 130.5 80.6" style="enable-background:new 0 0 130.5 80.6;" xml:space="preserve">
<path d="M76.5,33.1c0-0.6-0.5-0.5-0.9-0.8c-0.3-0.2-0.4-0.8-0.4-1.9c0-0.8,0-1.7,0-2.6l0.1-2.7c0-0.5,0-0.8,0-1.1
	c0-0.6-0.1-0.9-0.5-0.9c-0.2,0-1.3,0.1-2.7,0.7c-0.6,0.2-0.8,0.4-0.8,0.8c0,0.5,0.6,0.5,1.1,0.7c0.3,0.2,0.4,1.1,0.4,2.7v1.1
	c0,0.6,0,1.1,0,1.5c0,0.9-0.1,1.4-0.5,1.6c-0.3,0.2-0.8,0.2-0.8,0.7c0,0.7,0.8,0.8,2.6,0.8C75.8,33.9,76.5,33.7,76.5,33.1z
	 M75.4,21.3c0-0.7-0.6-1.3-1.6-1.3c-1,0-1.7,0.7-1.7,1.4c0,0.7,0.6,1.3,1.6,1.3C74.7,22.7,75.4,22.1,75.4,21.3z M70.1,47.8
	c-0.3,0.2-0.8,0.2-0.8,0.7c0,0.7,0.8,0.8,2.6,0.8c1.6,0,2.4-0.1,2.4-0.7c0-0.6-0.5-0.5-0.9-0.8C73,47.6,73,47,73,45.9
	c0-0.8,0-1.7,0-2.6l0.1-2.7c0-0.5,0-0.8,0-1.1c0-0.6-0.1-0.9-0.5-0.9c-0.2,0-1.3,0.1-2.7,0.7c-0.6,0.2-0.8,0.5-0.8,0.8
	c0,0.5,0.6,0.5,1.1,0.7c0.3,0.2,0.4,1.1,0.4,2.7v1.1c0,0.6,0,1.1,0,1.5C70.6,47.1,70.5,47.6,70.1,47.8z M73.2,36.7
	c0-0.7-0.6-1.3-1.6-1.3c-1,0-1.7,0.7-1.7,1.4c0,0.7,0.6,1.3,1.6,1.3C72.5,38.1,73.2,37.4,73.2,36.7z M99,27.2
	c-2.9,0-4.6,1.3-4.6,3.5c0,1.9,1.4,3.2,3.4,3.2c1.8,0,2.7-1.1,3-1.1c0.2,0,0.7,1.1,1.5,1.1c1.3,0,2.3-0.7,2.3-1.3
	c0-0.4-0.4-0.4-1-0.6c-0.3-0.1-0.4-0.5-0.4-1.2v-3.3c0-1.5,0-2.5-0.6-3.2c-0.6-0.8-1.7-1.2-3.3-1.2c-2.7,0-4.3,1.1-4.3,2.3
	c0,0.6,0.3,1,0.9,1c0.9,0,1.1-0.6,1.6-1.1c0.5-0.6,1.1-0.9,1.8-0.9c1,0,1.5,0.7,1.5,1.9v1.1C100.2,27.2,99.5,27.2,99,27.2z
	 M100.9,30.2c0,1.4-0.5,2-1.9,2c-1.2,0-2-0.7-2-1.8c0-1.2,0.9-1.9,2.4-1.9c0.5,0,1,0.1,1.5,0.2L100.9,30.2L100.9,30.2z M48.4,49.9
	c1.3,0,2.3-0.5,3.4-1.4c0.6-0.5,0.9-1,0.9-1.3c0-0.3-0.2-0.5-0.5-0.5c-0.4,0-0.7,0.4-1.1,0.7c-0.6,0.5-1.3,0.7-2,0.7
	c-1.8,0-3-1.5-3-3.2c0-0.6,0.1-0.6,0.8-0.6h4.9c0.9,0,1.1-0.1,1.1-1c0-2.6-1.6-4.2-4.2-4.2c-3,0-5.2,2.3-5.2,5.6
	C43.5,47.6,45.6,49.9,48.4,49.9z M48.3,40.4c1.3,0,2.3,1.1,2.3,2.4c0,0.3-0.2,0.4-0.6,0.4h-3.2c-0.5,0-0.6-0.1-0.6-0.4
	C46.1,41.5,47,40.4,48.3,40.4z M57.6,48.6c-0.8,0-1.6-0.3-2-0.9c-0.5-0.7-0.7-1.5-1.4-1.5c-0.3,0-0.6,0.3-0.6,0.8
	c0,1.1,0.5,2.4,0.9,2.7c0.1,0.1,0.3,0.2,0.4,0.2c0.2,0,0.4-0.1,0.6-0.2c0.8,0.2,1.4,0.2,1.9,0.2c2.2,0,3.9-1.5,3.9-3.4
	c0-1.7-1.1-2.2-3-3.2c-1.3-0.7-2.1-1.1-2.1-1.9c0-0.7,0.5-1.2,1.3-1.2c0.9,0,1.3,0.4,1.8,1.1c0.3,0.6,0.6,0.9,1,0.9
	c0.4,0,0.6-0.3,0.6-0.8c0-1.2-0.8-2.5-1.5-2.5c-0.2,0-0.4,0.1-0.8,0.2c-0.6-0.1-1-0.2-1.5-0.2c-2.1,0-3.4,1.3-3.4,3.1
	c0,1.5,0.9,2.2,2.8,3.1c1.5,0.7,2.3,1,2.3,2C59.1,48.1,58.6,48.6,57.6,48.6z M90.9,39.1c-2.7,0-4.3,1.1-4.3,2.3c0,0.6,0.3,1,0.9,1
	c0.9,0,1.1-0.6,1.6-1.1c0.5-0.6,1.1-0.9,1.8-0.9c1,0,1.5,0.7,1.5,1.9v1.1c-0.8-0.1-1.4-0.2-1.9-0.2c-2.9,0-4.6,1.3-4.6,3.5
	c0,1.9,1.4,3.2,3.4,3.2c1.8,0,2.7-1.1,3-1.1c0.2,0,0.7,1.1,1.5,1.1c1.3,0,2.3-0.7,2.3-1.3c0-0.4-0.4-0.4-1-0.6
	c-0.3-0.1-0.4-0.5-0.4-1.2v-3.3c0-1.5,0-2.5-0.6-3.2C93.5,39.5,92.4,39.1,90.9,39.1z M92.3,46.3c0,1.4-0.5,2-1.9,2
	c-1.2,0-2-0.7-2-1.8c0-1.2,0.9-1.9,2.4-1.9c0.5,0,1,0.1,1.5,0.2L92.3,46.3L92.3,46.3z M96.8,49.1c0,0.7,0.8,0.8,2.6,0.8
	c1.6,0,2.4-0.1,2.4-0.7c0-0.7-0.8-0.6-1.1-0.9c-0.3-0.4-0.3-1.9-0.3-4.5c0-5,0.1-7.7,0.1-8.3c0-0.6-0.1-0.9-0.6-0.9
	c-0.4,0-1.3,0.1-2.5,0.5c-0.8,0.3-1.1,0.4-1.1,0.9c0,0.6,0.7,0.5,1.3,0.8c0.4,0.2,0.4,1.6,0.4,4.2v0.8c0,1.4,0,2.6,0,3.6
	c0,1.7-0.1,2.6-0.3,2.9C97.4,48.6,96.8,48.6,96.8,49.1z M77.4,33.1c0,0.7,0.8,0.8,2.6,0.8c1.6,0,2.4-0.1,2.4-0.7
	c0-0.7-0.8-0.6-1.1-0.9C81,31.9,81,30.4,81,27.8c0-5,0.1-7.7,0.1-8.3c0-0.6-0.1-0.9-0.6-0.9c-0.4,0-1.3,0.1-2.5,0.5
	c-0.8,0.3-1.1,0.4-1.1,0.9c0,0.6,0.7,0.5,1.3,0.8c0.4,0.2,0.4,1.6,0.4,4.2v0.8c0,1.4,0,2.6,0,3.6c0,1.7-0.1,2.6-0.3,2.9
	C78,32.6,77.4,32.5,77.4,33.1z M41.5,32.4c-1.4,0-2.4-0.7-3.2-2.1c-0.5-0.8-0.6-1.3-1.2-1.3c-0.4,0-0.7,0.3-0.7,1
	c0,1.6,0.4,2.8,0.9,3.1c0.9,0.5,2.4,0.9,4.2,0.9c3.5,0,5.5-1.7,5.5-4.4c0-1.1-0.4-2-1.1-2.7c-0.9-0.8-2-1.2-3-1.7
	c-2.1-0.9-3.3-1.4-3.3-2.8c0-1.2,0.9-2,2.4-2c1.2,0,2,0.5,2.8,1.5c0.4,0.5,0.6,0.9,1.2,0.9c0.4,0,0.6-0.3,0.6-0.7
	c0-0.6-0.2-1.6-0.7-2.4c-0.3-0.5-0.5-0.7-0.9-0.7c-0.2,0-0.5,0.1-0.8,0.4c-0.9-0.3-1.8-0.4-2.6-0.4c-2.9,0-4.8,1.8-4.8,4.2
	c0,2.2,1.3,3.1,4.1,4.3c2.1,0.9,3.3,1.4,3.3,2.9C44.1,31.4,43,32.4,41.5,32.4z M128.2,58.4c-3.3,0.1-3,4.5-3,4.5
	c-0.1,17-14.2,15.3-14.2,15.3c-17.5-0.8-26.7-21.6-29.8-29.7c0.6-1.1,1.3-2.7,2.2-4.9c0.7-1.6,1.1-2.7,1.6-2.9
	c0.5-0.2,0.9-0.1,0.9-0.7c0-0.6-0.6-0.7-2-0.7c-1.5,0-2.2,0.1-2.2,0.7c0,0.5,0.3,0.4,0.8,0.6c0.2,0.1,0.3,0.3,0.3,0.6
	c0,0.5-0.5,1.8-1.5,4c-0.3,0.8-0.6,1.2-0.8,1.2c-0.2,0-0.6-0.9-1.3-2.5c-0.7-1.7-1-2.6-1-2.8c0-0.3,0.3-0.3,0.8-0.6
	c0.2-0.1,0.2-0.3,0.2-0.5c0-0.6-0.8-0.8-2.4-0.8c-1.9,0-2.7,0.1-2.7,0.8c0,0.5,0.5,0.5,0.9,0.8c0.6,0.3,0.9,1.5,1.8,3.7
	c0.6,1.4,1,2.5,1.4,3.3c9.3,25.5,22.1,32.3,32.3,32.4c9.7,0.1,14.7-4.8,17.9-11.2C130.8,64.2,131.6,58.3,128.2,58.4z M65.2,52.3
	c0.7-3.3,0.6-6,0.6-6v-1.8v-5.2c0-0.2,0.1-0.3,0.2-0.3h2.1c0.3,0,0.5-0.2,0.5-0.5v-0.2c0-0.4-0.1-0.5-0.5-0.5h-2.3v-1.9
	c0-0.2-0.2-0.3-0.4-0.3c-0.5,0-1,0.5-1.9,1.3C62.6,37.6,62,38,62,38.4v0.2c0,0.3,0.1,0.3,0.4,0.3h1l0,6.9c0,2.3-0.2,4.3-0.7,6
	c-5.8-0.8-11.5-0.1-15.4,3.2c-5.6,5.4-1.6,9,0.4,9.5c1.2,0.5,2.8,0.5,2.8,0.5c8.9-0.2,12.6-5.7,14.2-10.8c7.8,2,11.8,7.2,9.1,12
	c-2.4,2.9-7.4,0.3-7.4,0.3s3.4,6.3,9.9,6c6.5-0.3,7.5-7.3,4.6-11.6C78.3,57.4,72,53.9,65.2,52.3z M47.1,61.7c-2.1-2.9,3.3-9,13.7-8
	c0.4,0,0.8,0.1,1.2,0.2C58.4,62.9,48.9,64.2,47.1,61.7z M57.5,16.1C57.5,16.1,57.5,16.1,57.5,16.1c0.3,1.4,1,6.5,1,10
	c0,3.7,0,5.7-0.4,5.9c-0.4,0.3-1.1,0.3-1.1,0.9c0,0.7,0.9,0.8,2.8,0.8c1.9,0,2.8-0.8,2.8-0.8c0-0.7-0.7-0.6-1.1-0.9
	c-0.3-0.3-0.3-1.8-0.4-4.8v-0.1c0-0.1,0-0.1,0.1-0.1c0.1,0,0.1,0,0.2,0.1l1.2,1.5c2.2,2.7,3.7,4.2,4.5,4.8c0.3,0.2,0.7,0.3,1.2,0.3
	c1.6,0,2.4-0.2,2.4-0.8c0-0.6-0.8-0.5-1.3-0.9c-0.9-0.6-2.8-2.7-6.1-6.4c0.6-0.9,9.2-11,16.3-10.4c0,0,4.6,0.1,3.9,4.8
	c0,0-0.1,1.4,1.1,1.6c1.2,0.2,1.2-1.8,0.6-3.6c-0.8-2.3-2.2-4.2-5.5-4.6c-3.5-0.4-10.4,0.9-18.5,10l-0.1-3c0,0-0.1-1.3-0.4-3.7
	c-0.1-0.1,2.7-1.1,4.2-1.6c8.8-3.3,12.5-3.6,12.5-3.6C91.2,10.2,90,23.2,90,23.2c0,0.3,0,0.5-0.1,0.5c-0.2,0-1-0.6-2.5-0.6
	c-2.9,0-5,2.3-5,5.7c0,3.1,1.9,5,4.4,5c0.9,0,1.7-0.3,2.4-0.9c0.5-0.3,0.7-0.6,0.8-0.6c0,0,0.1,0.1,0.1,0.3v0.5
	c0,0.5,0.2,0.7,0.6,0.7c0.3,0,1-0.1,1.7-0.3c1.1-0.3,1.6-0.5,1.6-1c0-0.6-0.8-0.4-1.3-0.7c-0.3-0.2,0.1-5.4,0.3-11.6
	C92.6,5.6,76.6,7.1,63.7,13.3c-1.5,0.6-2.7,1.1-3.4,1.3c-1-5.1-3.8-13-9.7-13.9c-8.5-1.3-9.3,5.4-9.3,5.4
	C40.1,15.2,49.2,18,57.5,16.1z M90,29.6c0,1.6-0.8,2.4-2.3,2.4c-1.5,0-2.7-1.5-2.7-3.9c0-2.2,1-3.5,2.5-3.5c0.9,0,1.8,0.5,2.2,1
	c0.2,0.3,0.2,0.7,0.2,1.2L90,29.6L90,29.6z M50.6,4.2c3.5,0.6,5.2,5,6.5,9.9c-3.6,1-6.2,0.3-6.2,0.3C41.2,12.6,43.7,2.9,50.6,4.2z
	 M57.5,16.1L57.5,16.1C57.5,16.1,57.5,16.1,57.5,16.1z M26.3,29.2c3.5,0.7,6.2-0.7,7.6-1.7c0.6-0.3,0.9-0.7,1.2-0.9
	c1.3-1.5,0.4-2.8,0.4-2.8c-0.7-1-2.1-1.4-2.9-0.2c-0.7,1-0.2,2.4-1.6,3.2c-0.8,0.3-1.8,0.5-2.7,0.5c-4.3,0-7.7-3.4-7.7-7.6
	c0-1.9,0.7-3.7,1.9-5c0.9-1,2-1.8,3.3-2.2c1.1-0.3,2.3-0.4,3.6-0.3c2.5,0.2,5.2,0.9,7.1,1.7c5.2,2,7,4.2,11.8,5.4
	c0.8,0.2,0.4,3.7,0.4,5l0,6c0,1.5,0,2.5,0.7,3.2c0.5,0.5,1.2,0.7,2.1,0.7c1.7,0,3-1,3-1.7c0-0.3-0.2-0.5-0.6-0.5
	c-0.4,0-1,0.4-1.6,0.4c-1.1,0-1.1-0.7-1.1-2.1v-5.4c0-0.2,0.1-0.3,0.2-0.3h2.2c0.3,0,0.5-0.2,0.5-0.5v-0.3c0-0.4-0.1-0.5-0.5-0.5
	h-2.4v-4.6c0-0.2-0.2-0.4-0.5-0.4c0,0-2.8-0.1-6.9-2.3c-3.5-2-7.1-5.2-12.2-6.2c-7.7-1.4-13.2,2.2-14.2,7.7
	C16.3,24.9,22.2,28.4,26.3,29.2z M43.8,40c2-2.4,2.3-2.5,3.7-5.1c1.4-2.5-0.3-2.2-0.3-2.2s-0.5,3.4-9,3.4S3.8,17.3,0.6,38
	c0,0-0.8,2.4,1.4,2.9S6,39.4,5,37c-1.2-2.8,1.2-7.9,10.1-6.3c0,0,18.7,3.9,19,9.4c0,0,0,3.6-0.1,5.9c-0.3,7.7-1.6,14.6-6.7,17.6
	c-5.3,2.8-12.8,0.1-12.4-5c0.3-4.6,4.5-4.5,4.5-4.5l-0.1,0h0C7.1,51.8,4,71.9,19.8,71.7C37,71.6,36.7,47.7,36.7,47.7s0-1.6,0.9-1.6
	c1.5,0,0.6,1.8,1.9,1.8c1.1,0,1.2-2.1,1.2-2.9c0-0.8-0.1-2.9-1.2-2.9c-1.4,0-0.4,1.8-1.9,1.8c-1.1,0-1.2-1.7-1.2-1.7l-0.1-1.5
	c0.1-2.8,2.1-2.8,2.1-2.8c3.2-0.3,3.1,1.3,3.1,1.3C41.8,41,42.8,41.3,43.8,40z"/>
</svg>
